<svg xmlns="http://www.w3.org/2000/svg" xmlns:xlink="http://www.w3.org/1999/xlink" width="82" height="53" viewBox="0 0 82 53">
    <defs>
        <path id="szlmnb52oa" d="M0 0H82V53H0z"/>
    </defs>
    <g fill="none" fill-rule="evenodd">
        <g>
            <g>
                <g transform="translate(-25.000000, -14.000000) translate(24.999818, 14.000000) translate(0.000000, 0.003665)">
                    <mask id="9pcpdo245b" fill="#fff">
                        <use xlink:href="#szlmnb52oa"/>
                    </mask>
                    <ellipse cx="41.191" cy="26.751" fill="#FFF" fill-rule="nonzero" mask="url(#9pcpdo245b)" rx="39" ry="23.29" transform="translate(41.191353, 26.751161) rotate(-13.900000) translate(-41.191353, -26.751161)"/>
                    <path fill="#FFF" fill-rule="nonzero" d="M23.52 9.19c-.132-1.075-.36-2.134-.683-3.165-.07-.228-.259-.399-.49-.444-.233-.046-.471.048-.613.241-.26.328-.567.32-1.579.086-1.295-.296-3.219-.78-5.004 1.668-1.738-1.219-3.874-1.7-5.955-1.34-2.24.549-4.209 1.906-5.54 3.818-1.6 2.17-2.413 4.836-2.3 7.545v.561c.244 2.463 1.404 4.738 3.242 6.36.493.442 1.045.809 1.64 1.091 2.667 1.263 1.487-3.756 6.039-5.409 1.688-.611 3.414-1.11 5.165-1.496 1.144-.272 2.22-.785 3.158-1.504.99-.758 1.781-1.754 2.299-2.9.499-1.133.76-2.36.766-3.6-.018-.507-.067-1.012-.146-1.513z" mask="url(#9pcpdo245b)"/>
                    <path fill="#B90019" fill-rule="nonzero" d="M26.845 28.526L26.845 39.711 31.436 38.604 31.428 25.689zM30.455 25.058c1.016-.998 1.257-2.56.59-3.827-.697-1.075-2.061-1.138-3.119-.093-1.027 1.001-1.27 2.578-.59 3.85.697 1.06 2.092 1.099 3.119.07z" mask="url(#9pcpdo245b)"/>
                    <path fill="#B90019" fill-rule="nonzero" d="M79.839 17.022C76.727 4.248 56.902-1.754 35.559 3.624c-4.208 1.05-8.303 2.522-12.223 4.396.076.382.137.78.176 1.123.598-.297 1.203-.585 1.824-.866l-7.94 19.431v-9.002c-1.722.409-3.416.93-5.073 1.559l-.207.078-.046 25.72c-4.039-2.548-6.836-5.916-7.832-10.007-.805-3.645-.296-7.461 1.433-10.756-.367-.225-.711-.486-1.027-.78l-.176-.163c-2.169 4.021-2.89 8.168-1.931 12.127 3.111 12.767 22.937 18.768 44.28 13.398 21.343-5.37 36.133-20.093 33.022-32.86zM17.396 48.48l.1-11.527 9.87 13.6c-3.394-.27-6.743-.966-9.97-2.073zm24.347 1.403c-2.515.423-5.054.683-7.602.78L20.998 32.19 33.405 5.292c.767-.226 1.594-.452 2.4-.654 2.022-.507 4.045-.905 6.015-1.209l-.077 46.453zm7.212-47.03c1.418-.104 2.842-.104 4.26 0L48.94 19.486l.016-16.632zm-1.533 45.791V30.241l10.254 14.692c-3.306 1.537-6.737 2.778-10.254 3.71zm15.565-6.555L50.924 24.887l8.63-21.317c7.402 1.41 13.319 4.606 16.484 9.205l.046.062-2.882.725v-.078l.046-3.82-1.372.351-4.728 6.711-.038 1.653 1.402-.351-.038 7.015c-.12 1.687.913 3.237 2.498 3.748 1.89.58 3.908-.35 4.729-2.174.373-.976.514-2.028.413-3.071-.436.366-1.755 1.972-2.651 1.161-.307-.28-.353-.88-.353-2.127l.046-5.721 2.897-.74v-3.282c.976 1.394 1.693 2.958 2.115 4.614 2.054 8.535-4.238 17.981-15.181 24.637z" mask="url(#9pcpdo245b)"/>
                    <path fill="#B90019" fill-rule="nonzero" d="M66.006 25.72v-7.466c-.084-3.071-3.25-4.583-6-3.585-1.932.693-3.51 2.743-4.254 3.967v4.146c1.08-1.223 3.426-3.897 4.828-4.209.851-.21 1.15.694.728 1.481-.536 1.03-2.82 2.237-4.03 3.375-1.02.888-1.72 2.098-1.985 3.437-.476 2.066.69 4.568 2.122 5.028 1.533.506 3.503.194 5.273-1.622 1.908 1.17 3.793.382 4.598-1.84.29-.922.443-1.883.452-2.852-.598.694-1.732.92-1.732.14zm-4.598 1.56c-.013.306-.155.591-.39.784-.234.192-.54.273-.836.22-.293-.075-.541-.27-.686-.539-.146-.269-.175-.587-.08-.879.145-.912 1.532-2.221 2.092-2.634l-.1 3.047zM32.133 26.96l1.41-.35-.046 7.014c-.136 1.707.912 3.282 2.522 3.788 1.89.58 3.913-.349 4.736-2.175.37-.98.511-2.034.414-3.078-.437.366-1.763 1.98-2.66 1.16-.299-.272-.345-.872-.345-2.12l.046-5.72 2.897-.733V21.38l-2.874.725.085-3.827-1.403.35-4.728 6.68-.054 1.653z" mask="url(#9pcpdo245b)"/>
                    <path fill="#FFF" fill-rule="nonzero" d="M81.188 16.68C77.969 3.43 57.43-2.745 35.368 2.82c-4.2 1.046-8.29 2.5-12.216 4.342.069.288.13.577.184.857 3.933-1.877 8.04-3.35 12.261-4.396 21.343-5.378 41.169.624 44.28 13.398 3.112 12.775-11.671 27.482-33.06 32.86-21.39 5.378-41.169-.631-44.28-13.398-.958-3.96-.238-8.106 1.93-12.104.062.055-.52-.507-.834-.88C1.088 27.88.13 32.461 1.196 36.82c3.218 13.25 23.757 19.422 45.82 13.865S84.399 29.898 81.188 16.68z" mask="url(#9pcpdo245b)"/>
                    <path fill="#B90019" fill-rule="nonzero" d="M4.192 10.81c-1.469 2.09-2.186 4.63-2.03 7.194 0 .172 0 .351.053.523.292 2.535 1.625 4.826 3.67 6.305.812-1.474 2.001-2.697 3.442-3.538 2.568-1.423 5.321-2.473 8.177-3.118 1.055-.269 2.043-.763 2.896-1.45.888-.712 1.586-1.64 2.031-2.697.434-1.066.642-2.213.613-3.367-.006-.477-.042-.953-.107-1.426-.147-1.02-.386-2.025-.713-3-.528.709-1.295.553-2.214.358-1.38-.289-3.066-.67-4.683 2.003-1.704-1.308-3.868-1.834-5.97-1.45-2.103.54-3.94 1.843-5.165 3.663z" mask="url(#9pcpdo245b)"/>
                    <path fill="#FFF" fill-rule="nonzero" d="M17.963 9.758c.001-.07-.028-.135-.08-.18-.052-.046-.12-.065-.188-.054l-.314.07c-.134.053-.216.19-.2.336l.246 4.513c0 .155.107.257.23.226l.306-.102c.143-.047.239-.183.238-.335l-.238-4.474zM18.393 9.782v.21c0 .094.06.148.137.133l2.3-.507c.112-.04.182-.153.168-.273v-.35c0-.133-.092-.234-.191-.195l-2.3.779c-.075.038-.12.118-.114.203zM16.768 14.965c-.59.179-.989-.296-1.02-.943l-.084-1.879-.176.047c-.092 0-.169-.055-.176-.171l.015-.328c-.01-.113.056-.218.161-.257h.169l-.046-1.154c-.017-.153.072-.297.214-.35l.337-.07c.123 0 .238.078.246.241l.046 1.138.513-.125c.092 0 .169.055.176.172v.312c.012.106-.048.208-.145.25l-.521.132.084 1.714c0 .335.176.515.452.437h.046c.1 0 .184.054.184.179v.335c.008.118-.056.23-.16.28l-.315.04zM12.599 14.03c-.054-1.045-.567-1.973-1.648-1.692-1.08.28-1.532 1.489-1.532 2.619 0 1.13.766 2.05 1.724 1.722.724-.25 1.25-.89 1.364-1.66 0-.109-.046-.226-.153-.195l-.46.14c-.09.033-.16.105-.192.196-.093.288-.319.513-.605.6-.422.132-.767-.219-.767-.694l2.016-.6c.192-.04.26-.195.253-.437zm-2.3.202c-.01-.458.267-.872.69-1.029.186-.049.384-.006.534.115.15.12.237.306.233.501l-1.456.413zM21.29 11.816c-.039-.904-.514-1.723-1.533-1.504-.943.3-1.545 1.238-1.433 2.237.038 1.044.666 1.792 1.594 1.558.666-.196 1.163-.762 1.28-1.457 0-.086-.039-.195-.139-.164l-.429.11c-.081.025-.148.084-.184.163-.094.264-.303.469-.567.553-.39.102-.682-.21-.728-.623l1.885-.476c.192-.062.261-.194.253-.397zm-2.146.125c.01-.406.276-.759.659-.873.166-.04.342-.002.478.104.137.105.22.267.227.441l-1.364.328z" mask="url(#9pcpdo245b)"/>
                    <path fill="#FFF" fill-rule="nonzero" d="M14.929 10.187l-6.583 1.442c-.186.061-.304.246-.284.444l.192 3.515s-1.694-3.07-1.817-3.273c-.117-.183-.338-.266-.544-.203l-.582.14c-.201.058-.337.248-.33.46l.276 5.386c-.008.093.031.184.104.241.073.057.17.072.256.04l.345-.125c.196-.077.322-.27.314-.483l-.214-3.742 1.862 3.227c.1.173.306.248.49.18l.522-.172c.163-.077.265-.246.26-.429l-.214-4.49 5.962-1.363c.109-.044.177-.154.169-.273v-.335c0-.125-.085-.242-.184-.187z" mask="url(#9pcpdo245b)"/>
                    <path fill="#FFF" fill-rule="nonzero" d="M14.055 12.47c.276-.077.49 0 .575.203.084.203.107.102.199.078l.368-.101c.076-.026.128-.098.13-.18 0-.56-.56-.935-1.303-.779-.734.14-1.262.8-1.249 1.559-.002.232.09.455.253.617.163.162.385.249.613.24h.713c.176 0 .345 0 .352.219 0 .311-.237.49-.513.576-.231.102-.5.003-.613-.226-.054-.124-.3-.085-.422-.054l-.23.078c-.089.041-.143.134-.138.234v.07c0 .56.644.958 1.441.717.746-.182 1.267-.865 1.257-1.645.017-.22-.055-.44-.2-.605-.144-.166-.349-.266-.566-.276l-.767-.039c-.176 0-.345 0-.352-.233-.008-.234.191-.39.452-.452zM5.364 19.906c7.296-5.347 12.2-1.917 15.856-5.97-2.061 4.77-9.725 1.13-15.733 7.888l-.123-1.918z" mask="url(#9pcpdo245b)"/>
                    <path fill="#FFF" d="M25.566 3.118c.004-.276-.205-.506-.476-.523h-1.103v2.02h.306V3.71h.315l.574.904h.399l-.598-.92c.157.02.314-.034.427-.146.114-.112.17-.27.156-.43zm-1.273.28v-.514h.69s.253 0 .253.241c0 0 .084.273-.245.273h-.698zm.391-1.668c-.747-.003-1.423.453-1.711 1.154-.289.702-.133 1.511.395 2.05.528.539 1.323.701 2.014.41.69-.29 1.142-.975 1.142-1.735 0-1.035-.823-1.874-1.84-1.879zm0 3.399c-.623 0-1.184-.385-1.419-.972-.235-.587-.097-1.26.35-1.703.446-.443 1.112-.567 1.683-.313.571.254.935.834.919 1.468-.02.845-.7 1.52-1.533 1.52zM78.712 6.048c0-.276-.21-.505-.482-.522h-1.104v2.019h.314V6.64h.314l.575.904h.399l-.56-.92c.15.005.295-.055.399-.165.103-.11.156-.26.145-.412zm-1.272.28v-.514h.682s.253 0 .253.242c0 0 .084.273-.245.273h-.69zm.383-1.66c-1.015 0-1.839.838-1.839 1.871s.824 1.87 1.84 1.87c1.015 0 1.839-.837 1.839-1.87-.005-1.03-.827-1.863-1.84-1.863V4.67zm0 3.391c-.623 0-1.184-.384-1.419-.972-.235-.587-.096-1.26.35-1.703.446-.442 1.112-.566 1.683-.312.571.253.935.833.92 1.467 0 .41-.163.803-.452 1.089-.289.286-.679.442-1.082.431z" mask="url(#9pcpdo245b)"/>
                </g>
            </g>
        </g>
    </g>
</svg>
