<?xml version="1.0" encoding="UTF-8"?> <svg xmlns="http://www.w3.org/2000/svg" viewBox="0 0 157 55"><g fill="#f00"><path d="m12.3 54-6.2-19.7-.2 17.9-5.1-.1-.7-34 5.2.4 6.7 18.2 6.1-19.2 4.7-.2.3 34.5-5 2.6-.5-20.5-4.9 19.9zm28.8-14.5-2.9-12.2-3 12.3zm-7.1 4.9-1.9 8-5 .1 2-8.1h-3.8l1.8-4.7h3.1l5.5-22.7 3.9-.2 10 35.4h-5.6l-1.8-7.8zm24.8 1.8 8.8.1.3 5.2-16.2-.7 8.9-28.7h-8.3l.3-4.8 14.8-.1zm21.4-6.7-2.9-12.2-3 12.3zm-7 4.9-1.9 8-5 .1 2-8.1h-3.8l1.8-4.7h3.1l5.5-22.7 3.9-.2 10 35.4h-5.6l-1.8-7.8zm17.6 8.3.2-36.2h1.1c10.4 0 15.6 3.2 15.8 9.6v.3c0 6.4-4 10.3-12 11.6l.3 14.7zm5.1-20.5c4.8-.3 7.2-2 7.2-5v-.3c-.2-3.1-2.4-4.6-6.5-4.6h-.6v9.9zm24.1 7.3-2.9-12.2-3 12.3zm-7.1 4.9-1.9 8-5 .1 2-8.1h-3.8l1.8-4.7h3.1l5.5-22.6 3.9-.2 10 35.4h-5.5l-1.8-7.8h-8.3zm23.2-10.5-.1 18.6-5.1-.2-.3-34.4 5.2.6 6.2 18.7v-20l5.1.2.3 34.4-5.2-.6zm20.4 13-.3 5.2-5.1-.1.2-5.1zm0-19.9-.3 5.2-5.1-.1.2-5.1z"></path><path d="m116 10.1 3.5 1.8 7.3-8.3-7.2-3.6z"></path></g></svg> 