<?xml version="1.0" encoding="utf-8"?>
<!-- Generator: Adobe Illustrator 17.0.0, SVG Export Plug-In . SVG Version: 6.00 Build 0)  -->
<!DOCTYPE svg PUBLIC "-//W3C//DTD SVG 1.1 Basic//EN" "http://www.w3.org/Graphics/SVG/1.1/DTD/svg11-basic.dtd">
<svg version="1.1" baseProfile="basic" id="Layer_1"
	 xmlns="http://www.w3.org/2000/svg" xmlns:xlink="http://www.w3.org/1999/xlink" x="0px" y="0px" width="626.99px"
	 height="473.395px" viewBox="0 0 626.99 473.395" xml:space="preserve">
<g>
	<defs>
		<rect id="SVGID_1_" width="626.99" height="473.395"/>
	</defs>
	<clipPath id="SVGID_2_">
		<use xlink:href="#SVGID_1_"  overflow="visible"/>
	</clipPath>
	<path clip-path="url(#SVGID_2_)" fill="#FFFFFF" d="M339.359,158.498c0.351-0.632,0.661-1.295,0.936-1.992
		c1.983-5.007,1.352-10.537-1.586-15.032c0.228-0.949,0.346-1.926,0.352-2.919c0.069-5.061-2.122-10.141-5.69-13.233
		c-2.458-2.162-5.492-3.347-8.614-3.376c-0.359-1.784-0.552-3.893-0.729-5.839c-0.309-3.449-0.632-6.558-1.467-9.682
		c-2.124-7.889-8.806-12.018-13.844-13.147c-5.331-1.257-10.557,0.233-13.518,3.793c-1.914,2.216-4.653,7.141-1.488,15.222
		c0.691,1.775,0.609,3.708-0.213,5.405c-1.081,2.189-3.028,3.752-4.379,4.16c-10.784,3.224-17.519,11.588-20.871,19.791
		c-1.43-0.275-2.888-0.322-4.354-0.135c-4.327,0.65-7.948,3.55-9.43,7.515c-2.066,5.337-0.463,11.701,4.391,17.451
		c4.897,5.832,8.329,11.036,10.396,14.168c3.779,5.668,7.043,10.563,12.622,11.669c2.044,0.406,4.18,0.219,6.335-0.55
		c5.254-1.858,7.564-5.182,8.591-7.727c1.233,0.068,2.386,0.099,3.475,0.092c2.222-0.012,4.329-0.759,6.031-2.066
		c4.383,0.803,8.622,0.482,10.786,0.215c11.279-1.373,18.319-4.849,21.521-10.619C340.494,168.282,341.436,162.93,339.359,158.498"
		/>
	<path clip-path="url(#SVGID_2_)" fill="#FFFFFF" d="M594.335,366.026c2.872,1.554,6.046,2.654,9.442,3.057
		c12.489,1.482,22.935-6.437,23.207-17.882c0.276-11.445-9.913-22.067-22.629-23.532c-12.72-1.473-22.96,6.753-23.007,18.18
		c-0.013,2.065,0.408,4.066,1.013,6.015c-18.424,0.776-63.563,4.02-81.364,5.833c4.168-25.782,17.67-190.888,16.651-191.127
		c-45.959-4.482-91.676-7.501-137.083-9.1c0.58,4.098,1.151,8.197,1.713,12.294c0.381,2.728,0.76,5.456,1.133,8.185
		c1.972,14.758,3.822,29.506,5.552,44.24c-18.94-13.986-40.066-23.436-62.748-28.106c-0.631-1.357-1.458-2.625-2.438-3.71
		c-1.562-1.828-3.381-3.212-5.418-4.118l-6.544-2.897c-3.03-1.343-6.106-2.705-6.73-2.981c-4.026-2.016-7.689-4.118-10.888-6.249
		c-9.097-6.066-11.407-10.281-11.977-11.809c-0.3-0.806-0.283-1.454-0.255-1.732l0.122-0.489c0.684-1.01,5.364-6.717,24.788-9.659
		c0.332-0.042,3.549-0.413,7.121-0.821l9.295-0.788c2.255-0.174,4.46-0.889,6.442-2.063c0.199-0.111,0.391-0.234,0.579-0.366
		c0.09-0.057,0.182-0.118,0.278-0.183c0.545-0.339,1.035-0.685,1.489-1.05c0.939-0.755,1.725-1.537,2.425-2.416
		c2.51-3.181,3.647-7.154,3.205-11.199c-0.138-1.23-0.427-2.445-0.863-3.617c-2.408-6.451-9.087-10.634-16.035-9.841l-5.958,0.687
		l-14.438,1.209c-0.993,0.019-1.937,0.022-2.86,0.012c-1.86-0.014-3.649-0.094-5.318-0.229c-12.306-1.003-15.135-4.843-15.416-5.275
		c-0.438-1.123,0.176-4.646,5.238-10.786c5.278-6.399,13.257-12.984,18.826-16.673l0.183-0.126c0.146-0.106,0.287-0.219,0.424-0.334
		c1.297-0.927,6.051-4.29,6.051-4.29l1.938-1.661l0.26-0.245c0.279-0.276,0.561-0.575,0.785-0.855
		c4.366-5.292,4.642-12.908,0.662-18.542c-0.499-0.702-1.067-1.354-1.78-2.051c-2.544-2.492-5.909-4.026-9.468-4.317
		c-3.54-0.288-7.09,0.677-10.01,2.732l-6.041,4.284l-0.003-0.005c0,0-7.808,5.528-8.185,5.792c-2.683,1.757-5.162,3.283-7.583,4.673
		c-2.124,1.219-4.101,2.258-5.886,3.088c-5.392,2.001-8.618,2.107-10.067,1.989c-0.551-0.046-0.9-0.125-1.084-0.178l-0.46-0.31
		c-0.14-0.124-0.557-0.552-0.898-1.461c-1.463-3.924-0.795-13.503,5.452-28.619c0.71-1.51,6.139-13.06,6.139-13.06
		c0.969-2.018,1.455-4.257,1.441-6.658c0.027-1.943-0.283-3.801-0.928-5.526c-1.389-3.722-4.252-6.808-7.809-8.445
		c-1.514-0.713-3.136-1.165-4.894-1.356c-2.773-0.533-5.591-0.304-8.303,0.707c-2.484,0.958-4.676,2.532-6.343,4.553
		c-0.893,1.085-1.62,2.256-2.14,3.437c0,0-2.305,5.121-3.036,6.716l-0.365,0.742c-2.543,6.143-7.484,15.216-12.787,21.645
		c-3.656,4.433-6.548,6.513-8.28,7.086c-1.355-0.628-3.788-3.185-6.249-9.782c-2.896-7.766-4.607-17.971-5.015-24.642l-0.017-0.187
		c-0.015-0.185-0.042-0.371-0.075-0.554c-0.151-1.57-0.688-7.401-0.689-7.401l-0.47-2.512l-0.065-0.284
		c-0.101-0.395-0.222-0.801-0.36-1.169c-2.362-6.324-8.821-10.478-15.718-9.851c-1.616,0.151-3.193,0.563-4.691,1.223l-0.366,0.117
		c-2.661,0.944-4.993,2.562-6.748,4.69c-2.625,3.186-3.835,7.2-3.405,11.314l1.866,17.433c0.521,14.434-1.794,22.763-4.176,25.814
		c-0.242,0.045-0.525,0.054-0.848,0.028c-6.589-0.537-19.337-13.042-26.591-23.834c-0.155-0.24-0.326-0.469-0.513-0.684
		c-0.986-1.35-4.358-6.043-4.358-6.043c-2.596-3.632-6.66-5.928-11.151-6.295c-1.662-0.134-3.322,0.004-4.834,0.383
		c-1.966,0.459-3.779,1.274-5.417,2.442c-2.338,1.688-4.136,3.967-5.218,6.613c-2.77,5.195-2.308,11.533,1.215,16.271
		c0,0,6.808,9.173,7.566,10.205c10.009,15.266,12.133,26.42,10.493,29.675c-0.675,0.512-2.194,1.2-6.085,0.882
		c-3.832-0.31-8.857-1.533-14.933-3.631c-2.458-1.092-20.752-9.19-20.783-9.204c-1.558-0.678-3.204-1.091-4.887-1.228
		c-5.838-0.477-11.477,2.447-14.421,7.463c-0.354,0.555-0.655,1.09-0.909,1.619c-1.76,3.655-1.992,7.791-0.638,11.679
		c1.363,3.847,4.135,6.936,7.808,8.697l6.383,3.058l0.532,0.252c1.008,0.476,8.481,4.06,8.758,4.193
		c16.62,8.715,19.78,15.389,20.333,17.057l-0.005,0.009l0.037,0.697c-0.058,0.257-0.251,0.899-0.829,1.6
		c-1.085,1.314-5.895,5.831-22.18,8.746l-0.743,0.12c-0.501,0.057-1.875,0.217-3.729,0.433l-15.482,1.362
		c-4.124,0.357-7.841,2.307-10.467,5.489c-1.763,2.138-2.907,4.744-3.312,7.532l-0.048,0.385l-0.012,0.33
		c-0.012,0.41-0.118,2.227-0.118,2.227l0.01,0.815c0.672,8.279,7.785,14.632,16.472,13.946l1.829-0.156
		c0.338-0.001,0.673-0.015,0.986-0.053l18.765-1.611c7.153,0.003,13.447,0.784,18.134,2.243c2.287,0.887,3.867,2.004,4.288,3.129
		c0.235,0.6,0.148,1.908-0.726,3.907c-1.771,0.17-3.627,0.351-5.577,0.543c-34.081,3.398-61.077,17.729-79.815,41.765
		C1.807,247.951-3.83,275.279,2.471,304.579c0.349,1.555,0.666,3.089,1.028,4.602c9.298,38.598,32.577,65.364,68.409,80.308
		c-10.872,12.5-32.301,38.31-32.252,38.336c3.17,3.983,6.318,7.974,9.442,11.973c3.973,5.078,8.546,9.716,13.545,13.779
		c17.231,13.715,38.715,18.71,64.858,15.387c23.501-2.983,42.193-11.661,55.556-26.28c11.042-12.149,18.453-23.971,22.08-35.5
		c2.76,2.581,5.638,5.102,8.643,7.551c28.411,23.168,60.53,34.297,97.447,33.787c36.117-0.516,67.347-11.909,93.453-34.651
		c0.46,9.913,0.867,19.815,1.216,29.71c-0.083-0.424,74.087,6.204,80.112,7.356c24.671,2.115,134.553,21.551,134.635,22.458
		C612.887,437.673,604.121,401.868,594.335,366.026"/>
	<path clip-path="url(#SVGID_2_)" fill="#FF0000" d="M596.714,338.688c2.955,0.333,5.91,0.674,8.867,1.021
		c1.46,0.171,2.655,0.494,3.596,1.007c1.792,0.99,2.681,2.486,2.649,4.508c-0.016,1.048-0.292,1.901-0.784,2.497
		c-0.485,0.609-1.185,1.072-2.074,1.374c0.767,0.367,1.344,0.819,1.737,1.331c0.364,0.502,0.571,1.265,0.603,2.3
		c0.02,0.8,0.038,1.599,0.057,2.398c0.018,0.669,0.058,1.184,0.162,1.525c0.15,0.592,0.401,0.988,0.809,1.183
		c-0.001,0.135-0.004,0.268-0.007,0.401c-1.084-0.133-2.169-0.264-3.253-0.393c-0.107-0.168-0.133-0.381-0.219-0.611
		c-0.025-0.275-0.057-0.718-0.053-1.421c-0.046-0.992-0.092-1.987-0.14-2.98c-0.039-1.163-0.467-2.009-1.325-2.502
		c-0.467-0.266-1.24-0.449-2.283-0.571c-1.934-0.229-3.87-0.455-5.805-0.676c-0.032,2.53-0.067,5.061-0.106,7.589
		c-0.876-0.1-1.754-0.202-2.63-0.301C596.602,350.477,596.667,344.585,596.714,338.688 M605.156,347.777
		c1.174,0.138,2.142-0.003,2.84-0.367c0.701-0.353,1.044-1.114,1.062-2.29c0.017-1.23-0.434-2.152-1.395-2.711
		c-0.528-0.311-1.222-0.501-2.097-0.604c-2.076-0.245-4.152-0.485-6.225-0.721c-0.021,2.004-0.042,4.006-0.067,6.009
		C601.234,347.318,603.194,347.547,605.156,347.777"/>
	<path clip-path="url(#SVGID_2_)" fill="#FF0000" d="M604.755,332.495c-9.783-1.139-17.718,5.153-17.776,13.971
		c-0.056,8.828,7.68,16.766,17.325,17.915c9.635,1.142,17.672-4.945,17.863-13.781C622.36,341.772,614.523,333.627,604.755,332.495
		 M604.528,362.165c-8.19-0.974-14.702-7.763-14.646-15.217c0.06-7.453,6.744-12.784,15.03-11.817
		c8.266,0.962,14.895,7.857,14.741,15.317C619.498,357.909,612.695,363.134,604.528,362.165"/>
	<path clip-path="url(#SVGID_2_)" fill="#F7C601" d="M302.309,313.111c-12.335,0.201-22.455,4.47-30.311,12.666
		c-7.839,8.259-11.162,17.972-10.139,29.082c1.026,11.288,6.083,20.705,15.175,28.321c9.118,7.664,19.526,11.391,31.454,11.239
		c12.153-0.143,22.258-4.155,30.362-12.078c8.091-7.952,11.907-17.577,11.297-28.942c-0.623-11.131-5.575-20.736-14.927-28.646
		C325.886,316.806,314.846,312.896,302.309,313.111 M332.783,376.917c-6.618,6.489-14.728,9.681-24.782,9.821
		c-9.816,0.112-18.197-2.859-25.664-9.202c-7.281-6.056-11.272-13.337-12.224-22.273c-0.025-0.218-0.05-0.459-0.076-0.7
		c-0.784-9.042,1.889-16.796,8.35-23.5c6.44-6.716,14.5-10.084,24.584-10.255c10.356-0.156,19.123,2.957,26.773,9.462
		c7.621,6.438,11.574,14.002,12.114,23.078C342.412,362.654,339.373,370.325,332.783,376.917"/>
	<path clip-path="url(#SVGID_2_)" fill="#FF0000" d="M574.605,372.062c-32.811,1.776-65.287,4.35-97.395,7.698
		c7.187-64.883,12.711-130.205,16.546-195.895c-29.476-2.575-58.847-4.545-88.092-5.92c3.706,29.475,6.928,58.901,9.671,88.27
		c11.088,16.961,17.012,35.618,17.774,55.627c0.714,17.856-2.839,34.091-10.024,48.761c1.015,18.437,1.84,36.843,2.476,55.218
		c15.26,1.212,30.557,2.606,45.888,4.187c0-0.107-0.001-0.211-0.001-0.316c40.777,5.004,81.743,11.321,122.831,18.99
		C588.241,423.171,581.685,397.624,574.605,372.062 M439.322,220.497c-6.021,20.636-2.788,82.552-9.456,55.562
		c-6.489-26.906-7.385-86.795-7.497-86.818c10.665,0.249,21.35,0.579,32.054,0.989C455.959,207.591,445.553,199.892,439.322,220.497
		 M555.149,394.152c-4.813-9.988-8.437,3.658-74.661-3.431c25.043-2.919,50.319-5.364,75.811-7.326
		c4.551,6.896,9.052,13.806,13.499,20.729C569.775,404.123,562.604,410.053,555.149,394.152"/>
	<path clip-path="url(#SVGID_2_)" fill="#FFFFFF" d="M391.883,373.872c0.007,0.01-13.502,25.789-29.978,35.869
		c-16.543,9.952,31.082-9.272,38.169-43.235C406.784,332.365,391.868,373.868,391.883,373.872"/>
	<path clip-path="url(#SVGID_2_)" fill="#FFFFFF" d="M344.221,88.224c-0.559,5.611-5.56,9.707-11.17,9.148
		c-5.611-0.557-9.707-5.56-9.147-11.169c0.558-5.61,5.558-9.706,11.17-9.149C340.685,77.613,344.78,82.613,344.221,88.224"/>
	<path clip-path="url(#SVGID_2_)" fill="#F7C601" d="M171.793,88.56c-31.556,11.774-47.653,47.031-35.877,78.592
		c11.78,31.57,47.033,47.659,78.591,35.885c31.577-11.781,47.669-47.028,35.89-78.6C238.621,92.877,203.371,76.777,171.793,88.56"/>
	<path clip-path="url(#SVGID_2_)" fill="#ED872E" d="M315.73,137.111c-0.021,0.007-0.062,0.008-0.101,0.009l-0.032,0.003
		L315.73,137.111z"/>
	<path clip-path="url(#SVGID_2_)" fill="#008D39" d="M170.029,83.833c-34.292,12.794-51.738,50.961-38.939,85.265
		c12.799,34.301,50.987,51.727,85.279,38.933c34.313-12.803,51.732-50.976,38.933-85.279
		C242.505,88.451,204.342,71.03,170.029,83.833"/>
	<path clip-path="url(#SVGID_2_)" fill="#008D39" d="M306.125,144.608c0.134-0.02,3.527-0.409,7.287-0.841
		c4.197-0.356,9.432-0.801,9.432-0.801c1.427-0.108,2.764-0.587,4.009-1.323c0.08-0.045,0.146-0.106,0.224-0.151
		c0.111-0.065,0.21-0.144,0.318-0.213c0.346-0.211,0.682-0.438,1-0.693c0.541-0.435,1.05-0.918,1.495-1.475
		c1.557-1.974,2.249-4.41,1.977-6.907c-0.086-0.769-0.267-1.509-0.53-2.212c-1.469-3.94-5.487-6.549-9.854-6.059
		c0,0-2.629,0.304-6.047,0.7c-6.031,0.504-14.424,1.206-14.709,1.23c-1.12,0.027-2.186,0.028-3.223,0.019
		c-22.995-0.204-26.025-8.882-26.136-9.193c-1.851-4.625,1.255-10.772,6.158-16.717c5.922-7.183,14.468-14.093,20.11-17.834
		c0.071-0.048,0.125-0.12,0.183-0.159c0.774-0.557,6.33-4.489,6.33-4.489l1.446-1.273c0.136-0.136,0.276-0.281,0.397-0.428
		c2.654-3.216,2.86-7.92,0.408-11.391c-0.331-0.466-0.71-0.877-1.104-1.265c-3.177-3.108-8.213-3.627-11.966-0.988l-0.673,0.478
		l-5.317,3.771c0.208-0.153,0.458-0.205,0.69-0.339c-0.258,0.148-0.544,0.226-0.778,0.403l0.031-0.031c0,0-8.133,5.759-8.362,5.914
		c-2.894,1.893-5.488,3.482-7.874,4.852c-2.41,1.383-4.584,2.514-6.547,3.418c-8.55,3.217-13.703,2.73-16.009,1.681
		c-0.324-0.178-0.642-0.37-0.952-0.579c-0.026-0.023-0.063-0.046-0.087-0.068c0,0-0.033-0.021-0.078-0.048
		c-0.151-0.106-0.297-0.225-0.445-0.336c-0.682-0.561-1.891-1.783-2.714-3.986c-2.418-6.484-0.469-18.452,5.582-33.051
		c0.156-0.33,6.219-13.228,6.219-13.228c0.619-1.29,0.874-2.687,0.86-4.133c0.022-1.192-0.153-2.367-0.556-3.447
		c-0.831-2.225-2.532-4.134-4.803-5.18c-1.06-0.5-2.164-0.77-3.267-0.854c-1.758-0.385-3.592-0.273-5.313,0.37
		c-1.54,0.593-2.895,1.563-3.92,2.804c-0.535,0.649-0.981,1.349-1.318,2.114c0,0-2.706,6.002-3.201,7.075
		c-0.032,0.076-0.09,0.145-0.129,0.219c-2.591,6.256-7.761,15.953-13.682,23.133c-4.14,5.02-8.675,8.92-12.916,9.352
		c-0.145-0.014-0.239-0.029-0.265-0.035c-4.931-0.714-8.698-6.476-11.392-13.697c-3.255-8.721-4.963-19.579-5.376-26.336
		c-0.007-0.085-0.043-0.168-0.048-0.237c-0.095-0.949-0.718-7.728-0.718-7.728l-0.379-1.889c-0.049-0.187-0.104-0.379-0.17-0.558
		c-1.458-3.907-5.427-6.439-9.659-6.054c-1.182,0.111-2.286,0.447-3.291,0.945c-0.143,0.034-0.271,0.066-0.357,0.086
		c-1.667,0.591-3.109,1.596-4.172,2.886c-1.56,1.89-2.365,4.372-2.095,6.949c0,0,1.83,17.117,1.886,17.639
		c0.546,14.434-1.518,25.138-5.622,30.114c-0.376,0.456-0.788,0.842-1.202,1.188c-0.286,0.127-0.575,0.249-0.875,0.36
		c-10.306,3.846-27.816-15.772-34.724-26.049c-0.04-0.062-0.111-0.094-0.138-0.154c-0.691-0.938-4.576-6.338-4.576-6.338
		c-2.209-3.097-6.17-4.534-9.865-3.607c-1.197,0.281-2.325,0.779-3.31,1.48c-1.535,1.11-2.68,2.619-3.329,4.355
		c-1.8,3.138-1.695,7.172,0.603,10.263c0,0,7.438,10.019,7.685,10.366c10.785,16.411,14.63,30.781,10.184,36.84
		c-2.5,2.505-7.886,5.788-27.711-1.1c-0.576-0.261-20.967-9.287-20.967-9.287c-4.455-1.938-9.601-0.191-11.944,3.915
		c-0.232,0.351-0.444,0.716-0.628,1.101c-1.089,2.259-1.22,4.794-0.397,7.165c0.838,2.361,2.548,4.274,4.808,5.358l6.609,3.164
		c-0.122-0.058-0.208-0.145-0.327-0.215c0.126,0.075,0.248,0.177,0.399,0.239l0.063,0.043c0.147,0.059,8.862,4.238,9.123,4.367
		c21.137,11.084,24.132,20.579,23.515,23.307c0,0-0.092,2.474-2.178,5.003c-3.846,4.666-12.931,8.511-25.771,10.809
		c-0.297,0.048-0.584,0.096-0.887,0.143c-0.135,0.012-2.178,0.252-5.026,0.582c-5.089,0.433-14.476,1.243-14.476,1.243
		c-2.602,0.226-4.884,1.488-6.439,3.373c-1.073,1.302-1.778,2.898-2.03,4.636c-0.001,0.273-0.127,2.439-0.127,2.439
		c0.417,5.14,4.965,8.967,10.116,8.56c0,0,0.775-0.065,2.034-0.17c0.201-0.012,0.399,0.005,0.603-0.018c0,0,0.409-0.047,1.063-0.123
		c5.354-0.45,14.963-1.259,18.129-1.527c8.1-0.016,15.042,0.895,20.315,2.565c6.357,2.404,7.51,5.691,7.826,6.535
		c1.829,4.648-1.262,10.761-6.165,16.706c-5.925,7.184-14.464,14.111-20.106,17.858c-0.066,0.035-0.128,0.111-0.202,0.164
		c-0.97,0.692-6.328,4.479-6.328,4.479c-0.687,0.477-1.293,1.053-1.828,1.699c-1.016,1.233-1.703,2.744-2.005,4.381
		c-0.413,2.474,0.168,4.954,1.6,7.003c0.71,0.988,1.606,1.823,2.63,2.492c3.198,2.08,7.427,2.007,10.533-0.207
		c0,0,0.049-0.034,0.113-0.08c0.692-0.262,1.363-0.58,1.988-1.007l6.047-4.136c-0.113,0.075-0.23,0.106-0.351,0.175
		c0.127-0.072,0.277-0.128,0.407-0.226l0.067-0.033c0.126-0.098,8.106-5.551,8.347-5.712c0.861-0.545,1.677-1.027,2.501-1.517
		c10.503-5.669,22.988-10.1,28.767-5.334c2.943,2.426,6.811,11.45-2.213,33.521c-0.11,0.256-4.67,10.38-4.67,10.38l-2.561,5.669
		c-2.128,4.728-0.032,10.295,4.677,12.427c2.148,0.97,4.507,1.041,6.645,0.378c3.03-0.42,5.808-2.311,7.223-5.277
		c0,0,9.51-20.191,9.772-20.761c6.981-12.134,12.672-16.604,16.482-18.182c1.539-0.558,3.064-0.76,4.541-0.507
		c2.184,0.368,10.266,1.477,14.582,27.094c0.062,0.428,2.238,20.726,2.238,20.726c0.522,4.64,4.374,8.142,8.906,8.349
		c0.822,0.144,1.659,0.223,2.512,0.149c1.21-0.119,2.384-0.477,3.473-1.029c3.401-1.729,5.455-5.426,5.092-9.225
		c0,0-0.594-6.602-0.684-7.756c-0.023-0.076,0.016-0.128,0.006-0.2c-1.513-12.294-1.139-38.598,9.168-42.444
		c1.184-0.44,3.048-0.603,5.541,0.056c4.826,1.973,11.834,6.88,20.55,17.786c0.188,0.241,10.492,14.138,10.492,14.138
		c0.871,1.168,1.987,2.064,3.24,2.708c3.211,2.68,7.925,3.005,11.47,0.464c3.609-2.589,4.915-7.418,3.086-11.457l-0.934-1.634
		c0,0-3.972-5.538-4.517-6.305c-0.051-0.082-0.079-0.165-0.123-0.222c-2.867-3.748-6.551-9.423-9.631-15.465
		c-1.339-2.631-2.578-5.324-3.566-7.971c-2.694-7.218-3.554-13.975-0.361-17.807c1.411-1.707,6.415-8.15,30.753,0.934
		c0.402,0.16,19.063,8.433,19.063,8.433c4.129,1.805,8.898,0.402,11.425-3.131c0.37-0.515,0.692-1.074,0.954-1.676
		c1.025-2.301,1.074-4.818,0.237-7.057c-0.401-1.074-1.038-2.079-1.837-2.965c-0.932-1.092-2.043-1.99-3.328-2.563
		c0,0-0.901-0.398-2.224-0.983c-3.742-1.656-10.925-4.837-11.181-4.95c-4.358-2.177-8.255-4.422-11.636-6.677
		c-7.575-5.05-12.549-10.151-14.225-14.644c-1.137-3.048-0.414-5.414-0.414-5.414C276.601,156.182,282.553,148.177,306.125,144.608
		 M265.824,160.867c-0.76,16.417,24.872,29.646,44.156,35.039l3.408,1.536c0.446,0.205,0.825,0.518,1.114,0.882
		c0.84,0.862,1.118,2.168,0.602,3.334c-0.689,1.532-2.471,2.219-4.005,1.551l-19.266-8.53c-8.171-3.05-14.637-4.438-19.796-4.841
		c0,0-15.845-7.01-23.799,5.356c-8.89,13.837,6.826,37.857,20.82,52.181l2.709,3.736c0.111,0.172,0.207,0.343,0.279,0.539
		c0.588,1.272,0.194,2.843-0.982,3.681c-1.362,0.989-3.261,0.696-4.256-0.672l-3.618-5.049l-0.64-0.891l0.074,0.097
		c-0.047-0.053-0.083-0.118-0.116-0.16l-6.069-8.433c-6.297-8.159-11.863-13.368-16.587-16.632c0,0-10.243-14.017-23.31-7.269
		c-14.594,7.534-13.227,36.35-8.258,55.76l0.365,4.265c0.141,1.28-0.562,2.462-1.672,2.997c-0.349,0.171-0.728,0.309-1.153,0.329
		c-1.667,0.184-3.144-1.055-3.303-2.724l-0.771-8.439l0.019,0.675c0,0-1.153-19.13-7.733-32.737l0.017-0.006
		c0,0-1.972-17.49-16.655-18.178c-16.428-0.777-30.011,23.914-34.527,45.545l-1.235,2.629c-0.722,1.509-2.526,2.161-4.038,1.45
		c-0.264-0.137-0.489-0.284-0.699-0.475c-1.187-0.825-1.632-2.41-0.991-3.751l7.642-16.303c2.463-6.308,5.212-14.911,5.825-22.908
		l0.018-0.006c0,0,7.258-16.255-5.349-23.805c-14.476-8.635-38.277,7.215-52.597,21.205l-2.545,1.75
		c-1.39,0.939-3.279,0.585-4.225-0.793c-0.947-1.385-0.594-3.278,0.794-4.222l17.778-12.154c6.285-5.215,10.508-9.869,13.313-13.914
		l0.006-0.001c0,0,14.423-10.467,7.27-23.301c-8.199-14.706-36.201-13.046-55.603-8.08l-4.022,0.474
		c-1.679,0.168-3.182-1.022-3.37-2.678c-0.185-1.662,1.007-3.172,2.672-3.369l7.293-0.834l-0.15,0.004
		c0.094,0.016,0.15-0.004,0.204-0.012l10.296-1.18c9.343-1.422,16.169-3.473,21.238-5.761l0.007,0.007
		c0,0,17.715-1.831,17.928-16.54c0.251-16.855-24.435-31.072-43.885-35.109l-3.652-1.629c-1.367-0.6-2.068-2.088-1.712-3.489
		c0.036-0.274,0.107-0.542,0.221-0.806c0.676-1.535,2.467-2.219,4.003-1.548l21.257,9.405c7.008,2.443,12.688,3.624,17.313,4.001
		l0.003,0.006c0,0,16.267,7.262,23.801-5.359c8.638-14.464-5.857-39.12-20.689-52.333l-2.575-3.566
		c-0.966-1.354-0.66-3.249,0.705-4.239c0.344-0.241,0.714-0.4,1.1-0.473c1.187-0.325,2.484,0.087,3.221,1.155l4.959,6.884
		l-0.357-0.575c0,0,10.074,15.005,22.163,23.597c0,0,10.576,14.63,23.28,7.254c13.095-7.604,14.396-27.538,8.45-55.286l-0.34-3.573
		c-0.142-1.677,1.094-3.161,2.764-3.324c1.442-0.129,2.769,0.801,3.16,2.153c0.076,0.202,0.112,0.389,0.148,0.609l0.395,4.449
		l0.366,3.972l-0.023-0.647c0,0,1.126,18.607,7.459,32.183l0.001,0.002c0,0,1.843,17.96,16.548,17.927
		c2.686-0.009,5.23-0.563,7.654-1.585c4.527-2.136,8.716-5.93,12.397-10.658c4.969-6.779,9.319-16.168,13.251-27.628
		c0.356-1.358,0.674-2.699,0.942-4.015l1.786-4.018c0.683-1.517,2.475-2.205,4.017-1.523c0.381,0.176,0.705,0.416,0.963,0.712
		c0.26,0.257,0.451,0.563,0.603,0.884c0.351,0.537,0.543,1.168,0.503,1.819c0.025,0.483-0.054,0.971-0.257,1.413l-6.295,13.432
		c-0.399,0.955-0.818,1.998-1.245,3.102c-2.127,5.89-4.401,13.572-5.066,20.891c0,0-2.113,4.775-2.032,10.679
		c0.078,5.904,3.722,11.38,7.727,13.23c4.002,1.853,9.876,4.126,19.854,0.707c9.488-3.238,20.223-10.71,31.923-21.356l2.916-2.09
		c1.378-0.967,3.283-0.647,4.264,0.714c0.837,1.181,0.7,2.798-0.27,3.815c-0.137,0.166-0.28,0.292-0.452,0.435l-3.647,2.58
		l-3.248,2.312l0.545-0.345c0,0-15.512,10.335-24.059,22.638l-0.002,0.002c0,0-14.595,10.628-7.166,23.32
		c1.699,2.903,4.036,5.175,6.895,6.933c1.884,0.833,3.604,1.644,5.158,2.402c5.528,1.894,12.4,2.487,20.453,1.984
		c0.202-0.301,0.393-0.602,0.556-0.891c1.026,0.015,2.096,0.02,3.199-0.009l15.137-1.736c1.254-0.253,2.508-0.503,3.799-0.786
		l4.097-0.35c1.671-0.141,3.139,1.083,3.29,2.762c0.119,1.259-0.567,2.404-1.633,2.941c-0.39,0.255-0.833,0.422-1.297,0.476
		c-0.244,0.1-0.5,0.181-0.774,0.211l-7.271,0.834c-0.034,0.001-0.063,0.005-0.09,0.008l-10.283,1.2
		c-9.763,1.459-16.803,3.65-21.912,6.061c-0.153,0.021-0.354,0.056-0.583,0.097c0,0-11.646,1.773-15.479,10.339
		C266.476,156.552,265.933,158.538,265.824,160.867"/>
	<path clip-path="url(#SVGID_2_)" fill="#ED872E" d="M326.605,132.658c-0.151-1.678-1.619-2.902-3.29-2.762l-4.097,0.351
		c-1.291,0.283-2.545,0.533-3.799,0.785l-15.137,1.737c-1.103,0.029-2.173,0.024-3.199,0.009c-0.163,0.289-0.354,0.589-0.556,0.89
		c-8.053,0.504-14.925-0.09-20.453-1.984c-1.554-0.757-3.274-1.569-5.158-2.402c-2.859-1.757-5.196-4.029-6.895-6.932
		c-7.429-12.693,7.166-23.321,7.166-23.321l0.002-0.001c8.547-12.303,24.059-22.638,24.059-22.638l-0.545,0.345l3.248-2.313
		l3.647-2.58c0.172-0.143,0.315-0.268,0.452-0.435c0.97-1.017,1.107-2.633,0.27-3.814c-0.981-1.361-2.886-1.682-4.264-0.714
		l-2.916,2.09c-11.7,10.645-22.435,18.117-31.923,21.355c-9.978,3.42-15.852,1.146-19.854-0.706
		c-4.005-1.851-7.649-7.326-7.727-13.231c-0.08-5.904,2.032-10.679,2.032-10.679c0.665-7.318,2.939-15,5.066-20.89
		c0.427-1.105,0.846-2.147,1.245-3.103l6.295-13.432c0.203-0.441,0.282-0.93,0.257-1.413c0.04-0.65-0.152-1.282-0.503-1.818
		c-0.152-0.322-0.343-0.627-0.603-0.884c-0.258-0.297-0.583-0.536-0.963-0.713c-1.542-0.682-3.334,0.006-4.017,1.523l-1.786,4.018
		c-0.268,1.317-0.586,2.658-0.942,4.015c-3.932,11.46-8.282,20.85-13.251,27.628c-3.681,4.728-7.869,8.523-12.397,10.658
		c-2.424,1.022-4.968,1.576-7.654,1.585c-14.705,0.034-16.548-17.927-16.548-17.927l-0.001-0.002
		c-6.332-13.575-7.459-32.182-7.459-32.182l0.023,0.647l-0.366-3.973l-0.395-4.449c-0.036-0.219-0.072-0.407-0.148-0.609
		c-0.392-1.351-1.718-2.281-3.16-2.153c-1.67,0.164-2.906,1.648-2.764,3.325l0.34,3.573c5.946,27.747,4.645,47.681-8.45,55.286
		c-12.703,7.376-23.28-7.255-23.28-7.255c-12.089-8.591-22.163-23.597-22.163-23.597l0.357,0.575l-4.959-6.884
		c-0.737-1.068-2.033-1.48-3.22-1.154c-0.387,0.073-0.757,0.231-1.101,0.473c-1.365,0.99-1.671,2.885-0.705,4.238l2.575,3.566
		c14.832,13.214,29.327,37.87,20.69,52.334c-7.535,12.62-23.802,5.359-23.802,5.359l-0.003-0.007
		c-4.625-0.377-10.305-1.558-17.313-4L75.306,88.66c-1.536-0.672-3.327,0.012-4.003,1.547c-0.114,0.264-0.185,0.532-0.221,0.806
		c-0.356,1.401,0.345,2.89,1.712,3.49l3.652,1.628c19.45,4.038,44.136,18.254,43.885,35.109
		c-0.212,14.709-17.928,16.541-17.928,16.541l-0.007-0.007c-5.069,2.288-11.895,4.338-21.237,5.76l-10.297,1.18
		c-0.054,0.008-0.11,0.028-0.203,0.013l0.149-0.005l-7.293,0.835c-1.665,0.196-2.857,1.706-2.672,3.368
		c0.188,1.656,1.691,2.846,3.369,2.678l4.023-0.474c19.402-4.965,47.405-6.625,55.603,8.08c7.153,12.834-7.27,23.301-7.27,23.301
		l-0.006,0.001c-2.805,4.046-7.027,8.7-13.313,13.915l-17.777,12.154c-1.389,0.943-1.742,2.837-0.795,4.222
		c0.946,1.376,2.836,1.732,4.225,0.792l2.545-1.75c14.32-13.99,38.121-29.84,52.597-21.205c12.607,7.55,5.349,23.805,5.349,23.805
		l-0.018,0.007c-0.612,7.996-3.361,16.6-5.825,22.907l-7.642,16.304c-0.641,1.341-0.196,2.926,0.991,3.751
		c0.21,0.189,0.435,0.338,0.699,0.474c1.512,0.711,3.316,0.059,4.038-1.45l1.235-2.629c4.516-21.631,18.099-46.322,34.527-45.545
		c14.683,0.689,16.655,18.178,16.655,18.178l-0.017,0.006c6.58,13.607,7.733,32.737,7.733,32.737l-0.019-0.674l0.771,8.438
		c0.16,1.67,1.636,2.908,3.303,2.725c0.425-0.021,0.804-0.159,1.153-0.329c1.11-0.536,1.813-1.717,1.672-2.998l-0.364-4.264
		c-4.97-19.41-6.337-48.227,8.257-55.761c13.067-6.748,23.31,7.27,23.31,7.27c4.724,3.263,10.29,8.472,16.587,16.631l6.069,8.432
		c0.033,0.043,0.069,0.108,0.116,0.161l-0.074-0.096l0.64,0.89l3.618,5.049c0.996,1.368,2.894,1.661,4.256,0.673
		c1.176-0.839,1.57-2.409,0.982-3.682c-0.072-0.195-0.168-0.367-0.279-0.539l-2.709-3.735c-13.994-14.324-29.71-38.345-20.82-52.182
		c7.954-12.365,23.799-5.355,23.799-5.355c5.159,0.402,11.625,1.79,19.796,4.84l19.266,8.53c1.534,0.668,3.316-0.019,4.005-1.551
		c0.516-1.166,0.238-2.471-0.602-3.334c-0.289-0.363-0.668-0.676-1.114-0.881l-3.408-1.536
		c-19.284-5.394-44.916-18.623-44.156-35.04c0.109-2.329,0.652-4.314,1.46-6.042c3.832-8.566,15.478-10.339,15.478-10.339
		c0.23-0.04,0.43-0.075,0.584-0.097c5.108-2.41,12.148-4.602,21.911-6.06l10.283-1.2c0.027-0.003,0.056-0.007,0.09-0.009
		l7.271-0.833c0.274-0.031,0.53-0.112,0.774-0.212c0.464-0.054,0.907-0.221,1.297-0.476
		C326.038,135.061,326.724,133.917,326.605,132.658 M216.369,208.031c-34.292,12.794-72.48-4.632-85.279-38.933
		c-12.799-34.304,4.647-72.471,38.939-85.265c34.314-12.803,72.476,4.617,85.273,38.919
		C268.101,157.056,250.682,195.229,216.369,208.031"/>
	<path clip-path="url(#SVGID_2_)" fill="#F7C601" d="M218.523,90.217c-30.639-13.987-66.951-0.439-80.942,30.204
		c-13.994,30.654-0.442,66.959,30.198,80.947c30.646,13.992,66.961,0.454,80.957-30.2
		C262.725,140.526,249.17,104.211,218.523,90.217 M223,98.393c8.748,3.113,12.321,10.049,7.298,6.214
		c-6.136-4.666-12.649-5.65-17.258-4.309C208.426,101.645,214.514,95.368,223,98.393 M159.668,110.538
		c-6.535,7.825-2.808-1.469,4.276-6.476c6.517-4.602,14.51-1.4,9.033-1.043C172.977,103.018,166.15,102.797,159.668,110.538
		 M155.911,146.618c-1.653,0.088-3.52-0.464-0.525-1.164c2.718-0.656,5.136-0.465,7.418,0.062
		c-2.763-3.839-4.286-8.775-4.621-14.138c-0.793-12.502,6.266-23.155,15.739-23.757c3.798-0.236,7.525,1.115,10.702,3.932
		c4.59,4.03,7.465,10.454,7.926,17.632c0.454,7.183-1.909,19.516-10.691,22.785c-4.536,1.705-8.774,0.624-14.579-2.026
		C161.028,147.09,158.1,146.53,155.911,146.618 M187.998,178.661c-2.347-6.231-5.871-7.977-8.871-10.045
		c-2.911-2.016-3.411-2.561-7.724-4.939c0,0-1.984,2.488-5.272,4.021c-1.896,0.903-1.91,0.528,0.114-0.884
		c1.92-1.334,3.893-3.143,4.436-5.979c0.551-2.837,0.744-2.45,1.306,0.425c0,0,15.287,10.597,23.935,3.079
		c8.637-7.523,13.499-7.516,20.11-4.496c0,0-3.405,8.861-2.52,15.864C214.887,186.811,195.62,199.109,187.998,178.661
		 M196.704,149.751c0,0,5.994-9.119,12.565-4.205c3.443,2.577-1.596-0.208-4.349,0.825c-1.899,0.723-4.805,1.827-7.376,4.383
		C194.981,153.29,195.798,150.91,196.704,149.751 M236.052,137.656c-3.782,0.144-5.26,0.916-8.496,3.688l0.009-0.022
		c-2.191,1.843-4.704,2.919-7.417,3.083c-3.434,0.231-6.79-1.004-9.66-3.53c-4.106-3.615-6.692-9.366-7.09-15.786
		c-0.29-4.326,0.497-8.409,2.051-11.812c2.471-5.415,6.884-9.118,12.12-9.461c3.43-0.203,6.775,0.997,9.644,3.528
		c4.125,3.623,6.686,9.368,7.11,15.798c0.309,4.762-0.636,9.28-2.604,12.978l0.002,0.002c1.659-0.317,2.795-0.276,4.261,0.097
		C237.548,136.609,239.305,137.531,236.052,137.656"/>
	<path clip-path="url(#SVGID_2_)" fill="#FFFFFF" d="M173.344,119.548c-0.929,2.034-3.317,2.92-5.337,1.998
		c-2.032-0.929-2.933-3.317-2.004-5.349c0.922-2.02,3.32-2.917,5.355-1.99C173.377,115.131,174.265,117.528,173.344,119.548"/>
	<path clip-path="url(#SVGID_2_)" fill="#FFFFFF" d="M168.71,123.799c-0.609,1.337-2.174,1.93-3.517,1.315
		c-1.344-0.614-1.942-2.193-1.331-3.528c0.617-1.352,2.204-1.941,3.547-1.327C168.754,120.871,169.327,122.449,168.71,123.799"/>
	<path clip-path="url(#SVGID_2_)" fill="#ED872E" d="M189.24,174.85c0.384,0.739,0.744,1.503,1.059,2.378
		c2.737,7.316,7.406,10.761,12.803,9.453c3.398-0.84,6.56-3.512,8.123-6.812C208.275,176.47,200.662,169.844,189.24,174.85"/>
	<path clip-path="url(#SVGID_2_)" fill="#F7C601" d="M296.418,210.084c-4.518-2.001-8.414-3.724-9.136-4.037
		c-3.27-1.216-6.281-2.179-9.02-2.885c-5.39,0.566-10.614,1.419-15.675,2.541c-0.118,1.676,0.195,4.237,1.35,7.808
		c8.604-2.007,17.721-3.179,27.385-3.436C293.031,210.042,294.726,210.06,296.418,210.084"/>
	<path clip-path="url(#SVGID_2_)" fill="#F7C601" d="M604.887,458.536c-7.22-31.536-15.229-63.127-24.039-94.745
		c-0.173-0.408-77.019,4.858-94.137,7.092c3.366-18.091,17.736-193.68,16.561-193.953c-36.04-3.3-71.927-5.697-107.625-7.214
		c0.374,2.736,0.743,5.473,1.107,8.21c3.239,25.133,6.127,50.234,8.664,75.294c-4.824-5.602-10.164-11.022-16.244-16.147
		c-18.549-15.658-39.688-26.114-62.621-31.178c-0.091,0.237-0.171,0.475-0.275,0.709c-0.405,0.927-0.932,1.854-1.55,2.714
		c-0.913,1.276-2.028,2.364-3.263,3.285c22.8,4.377,43.66,14.381,62.067,29.876c26.236,22.119,39.814,48.716,41.097,79.005
		c1.273,30.49-10.022,55.829-32.55,76.485c-22.581,20.715-49.722,30.927-81.767,31.378c-31.926,0.484-59.383-9.028-83.828-29.024
		c-24.466-19.97-38.862-44.61-43.034-74.686c-2.468-17.852-0.743-34.529,5.437-49.921c-0.6-5.594-1.318-12.262-1.7-15.769
		c-11.534,19.96-15.346,42.246-11.935,66.348c0.094,0.588,0.178,1.136,0.276,1.764c1.884,12.142,5.443,23.474,10.516,34.037
		c-7.761-8.183-20.737-13.533-36.732-16.641c-8.201-1.739-10.904-3.166-11.513-3.579c-1.631-1.076-2.91-3.421-3.755-6.833
		c-1.679-6.557,0.643-7.729,1.871-8.361c0.769-0.374,4.699-2.171,20.792-3.375c1.535-0.069,3.557-0.087,5.895-0.066
		c-0.248-2.559-0.499-5.118-0.751-7.679c-2.342-0.013-4.444,0.011-6.122,0.096c-12.557,0.916-20.486,2.412-23.947,4.263
		c-5.94,2.999-7.767,8.546-5.686,16.628c1.374,5.439,3.749,9.262,7.222,11.58c2.68,1.746,7.592,3.325,14.617,4.853
		c16.22,3.128,27.303,9.164,33.035,17.723c3.603,5.453,5.78,10.913,6.506,16.431c1.667,12.657-4.935,26.872-19.205,42.76
		c-10.045,11.168-24.49,17.736-43.346,20.137c-20.773,2.656-37.302-1-50.119-11.212c-3.864-3.156-7.344-6.66-10.331-10.515
		c8.736-10.33,17.579-20.606,26.524-30.825c7.613,10.726,17.254,15.288,29.137,13.761c9.599-1.231,14.707-4.954,15.278-11.222
		c0.192-1.467,0.216-2.816,0.038-3.991c-0.775-5.113-4.072-8.901-9.823-11.271c-2.557-1.125-7.505-2.386-14.836-3.684
		c-50.211-9.206-79.202-34.771-88.12-79.622c-5.008-24.208-0.133-46.409,15.595-66.246c11.343-14.331,26.054-24.339,43.99-29.838
		c0.155-0.125,0.323-0.257,0.536-0.395c3.821-2.542,8.755-6.453,13.187-10.72c-27.29,4.128-49.106,16.49-64.717,36.332
		c-16.954,21.578-22.169,45.896-16.705,72.096c9.816,48.253,41.248,76.066,94.859,85.876c9.097,1.632,12.108,2.759,12.969,3.148
		c4.138,1.677,4.907,3.541,5.177,5.286c-0.009,0.639-0.017,1.28-0.026,1.919c-0.013,0.098-0.024,0.195-0.037,0.295
		c-0.069,0.851-0.296,3.421-8.542,4.476c-8.847,1.142-15.566-2.168-21.448-10.432c-1.972-2.795-3.955-5.588-5.949-8.378
		c-12.544,14.293-24.885,28.694-37.02,43.201c1.266,1.615,2.53,3.228,3.789,4.843c3.376,4.332,7.272,8.324,11.547,11.809
		c14.599,11.611,33.244,15.797,56.094,12.885c20.703-2.635,36.908-10.116,48.235-22.61c15.766-17.476,24.563-34.421,22.666-49.257
		c-0.368-2.887-1.117-5.769-2.126-8.636c7.129,10.559,15.935,20.253,26.63,28.991c25.954,21.198,55.496,31.413,89.3,30.96
		c33.975-0.527,63.233-11.477,87.284-33.419c6.845-6.242,12.625-12.954,17.531-20.055c0.876,16.468,1.601,32.912,2.174,49.332
		c17.746,1.35,35.539,2.948,53.377,4.797c-0.048-0.111-0.098-0.22-0.148-0.329C515.361,442.85,560.054,449.884,604.887,458.536
		 M425.561,425.821c-0.636-18.375-1.46-36.78-2.474-55.218c7.182-14.67,10.738-30.907,10.021-48.76
		c-0.759-20.01-6.683-38.667-17.771-55.627c-2.743-29.369-5.967-58.798-9.673-88.271c29.245,1.375,58.616,3.345,88.094,5.92
		c-3.837,65.69-9.359,131.01-16.547,195.895c32.107-3.347,64.584-5.922,97.394-7.7c7.08,25.564,13.638,51.111,19.676,76.622
		c-41.089-7.668-82.056-13.986-122.834-18.99c0.001,0.105,0.002,0.21,0.002,0.315C456.12,428.428,440.823,427.033,425.561,425.821"
		/>
	<path clip-path="url(#SVGID_2_)" fill="#FF0000" d="M180.969,370.704c-5.73-8.559-16.815-14.596-33.035-17.724
		c-7.025-1.528-11.935-3.106-14.615-4.85c-3.473-2.32-5.85-6.144-7.224-11.583c-2.081-8.081-0.253-13.629,5.688-16.627
		c3.459-1.851,11.391-3.347,23.946-4.263c1.679-0.085,3.779-0.109,6.121-0.096c-1.073-18.613,2.004-36.159,9.412-52.473
		c-2.15-5.289-4.326-10.575-6.524-15.86c-0.762,1.175-1.552,2.462-2.371,3.878c-1.15,2.453-9.672,20.545-9.672,20.545
		c-2.167,4.537-6.349,7.685-11.258,8.524c-3.44,0.953-7.125,0.682-10.349-0.772c-7.651-3.463-11.069-12.523-7.618-20.195
		l2.566-5.676c0,0,4.423-9.825,4.645-10.323c2.665-6.519,4.053-11.678,4.684-15.666c-6.804-1.866-14.926-3.862-23.592-4.661
		c-0.511,0.304-1.019,0.606-1.551,0.938c-0.758,0.518-7.133,4.875-8.068,5.524l-0.547,0.375l-5.797,3.965
		c-0.753,0.516-1.573,0.962-2.492,1.357c-2.759,1.825-6.168,2.7-9.593,2.421c-2.523-0.206-4.969-1.039-7.075-2.409
		c-1.574-1.025-2.912-2.288-4-3.743c-0.483,0.315-0.966,0.627-1.444,0.962c-34.264,24.17-32.869,60.792-32.998,60.727
		c0.119,0.024-10.121-30.225,13.75-55.434c5.539-5.813,11.57-10.375,17.74-13.98c-0.119-1.298-0.088-2.613,0.131-3.926
		c0.498-2.708,1.621-5.146,3.267-7.146c0.901-1.091,1.915-2.029,3.011-2.79c0,0,4.717-3.335,6.063-4.291
		c0.031-0.026,0.08-0.057,0.113-0.083c-17.945,5.501-32.664,15.516-44.014,29.855c-15.729,19.84-20.605,42.039-15.596,66.247
		c8.918,44.852,37.908,70.416,88.12,79.622c7.331,1.297,12.279,2.558,14.835,3.685c5.752,2.371,9.049,6.157,9.823,11.27
		c0.179,1.175,0.155,2.525-0.038,3.991c-0.57,6.267-5.678,9.992-15.277,11.222c-11.883,1.527-21.523-3.035-29.135-13.761
		c-8.948,10.218-17.79,20.495-26.527,30.825c2.988,3.855,6.468,7.358,10.331,10.514c12.817,10.213,29.347,13.868,50.121,11.213
		c18.854-2.402,33.301-8.969,43.345-20.137c14.27-15.888,20.873-30.103,19.204-42.759
		C186.75,381.617,184.574,376.157,180.969,370.704"/>
	<path clip-path="url(#SVGID_2_)" fill="#FF0000" d="M424.628,321.482c-1.283-30.287-14.861-56.884-41.099-79.001
		c-18.404-15.497-39.264-25.501-62.063-29.879c-2.951,2.202-6.654,3.341-10.419,3.033c-1.682-0.137-3.321-0.55-4.873-1.229
		c-2.95-1.307-6.514-2.887-9.759-4.323c-1.691-0.024-3.385-0.042-5.094-0.009c-9.662,0.257-18.781,1.426-27.388,3.424
		c0.199,0.616,0.395,1.229,0.648,1.909c0.833,2.234,1.911,4.638,3.295,7.353c2.579,5.061,5.937,10.467,9.001,14.49l0.532,0.777
		c0.992,1.393,4.278,5.971,4.278,5.971l0.323,0.504l1.19,2.13c2.983,6.586,0.873,14.434-5.016,18.659
		c-2.918,2.09-6.495,3.082-10.072,2.789c-2.959-0.242-5.74-1.315-8.083-3.111c-1.872-1.059-3.45-2.442-4.697-4.119
		c-0.007-0.007-9.989-13.47-10.451-14.082c-8.442-10.557-14.614-14.386-17.735-15.754c-0.928-0.203-1.677-0.127-1.681-0.126
		c-4.521,1.689-7.29,20.307-5.334,36.201l0.108,0.881l-0.035,0.209c0.169,1.992,0.627,7.056,0.627,7.056
		c0.584,6.142-2.745,12.178-8.288,14.993c-1.774,0.9-3.646,1.452-5.562,1.639c-0.832,0.073-1.632,0.072-2.443,0.008
		c-0.438-0.036-0.872-0.092-1.304-0.16c-0.051-0.002-0.1-0.006-0.151-0.011c-7.259-0.592-13.118-6.283-13.934-13.53
		c-0.083-0.782-0.172-1.61-0.263-2.457c-6.17,15.396-7.905,32.07-5.436,49.921c4.172,30.075,18.568,54.717,43.033,74.687
		c24.444,19.992,51.901,29.506,83.829,29.02c32.043-0.449,59.185-10.661,81.766-31.376
		C414.607,377.313,425.902,351.974,424.628,321.482 M302.31,313.111c12.534-0.215,23.574,3.696,32.91,11.644
		c9.352,7.91,14.304,17.514,14.927,28.646c0.61,11.364-3.206,20.988-11.296,28.939c-8.107,7.923-18.208,11.938-30.363,12.081
		c-11.928,0.152-22.334-3.576-31.453-11.24c-9.093-7.615-14.149-17.035-15.177-28.322c-1.023-11.11,2.301-20.821,10.14-29.083
		C279.852,317.58,289.975,313.311,302.31,313.111"/>
	<path clip-path="url(#SVGID_2_)" fill="#FFFFFF" d="M231.736,123.305c-0.583-9.017-5.941-16.127-12.333-16.864
		c3.833,2.219,6.737,7.226,7.118,13.241c0.527,8.361-3.969,15.459-10.049,15.839c-4.072,0.247-7.806-2.567-9.99-6.949
		c1.734,7.944,7.288,13.659,13.505,13.266C227.092,141.379,232.378,133.078,231.736,123.305"/>
	<path clip-path="url(#SVGID_2_)" fill="#FFFFFF" d="M175.889,110.258c0.07,0.032,0.113,0.052,0.078,0.015
		c4.374,2.494,7.655,8.177,8.08,14.991c0.615,9.473-4.489,17.514-11.373,17.94c-4.607,0.295-8.815-2.877-11.302-7.818
		c1.12,5.008,3.528,9.591,6.36,11.473c2.707,1.786,6.852,3.236,10.54,2.939c9.769-0.837,12.027-15.155,11.696-20.452
		C189.32,119.099,183.189,110.997,175.889,110.258"/>
	<path clip-path="url(#SVGID_2_)" fill="#FFFFFF" d="M216.236,113.793c-0.781,1.709-2.81,2.484-4.538,1.696
		c-1.734-0.792-2.492-2.84-1.711-4.549c0.791-1.734,2.831-2.495,4.567-1.704C216.281,110.025,217.028,112.059,216.236,113.793"/>
	<path clip-path="url(#SVGID_2_)" fill="#FFFFFF" d="M211.939,118.219c-0.521,1.141-1.866,1.64-3,1.122
		c-1.159-0.529-1.652-1.867-1.132-3.007c0.521-1.139,1.858-1.648,3.017-1.119C211.957,115.733,212.457,117.082,211.939,118.219"/>
	<path clip-path="url(#SVGID_2_)" fill="#FFFFFF" d="M177.224,199.554c-12.666-5.782-22.471-15.207-28.712-26.434
		c-1.328-3.81-0.024-8.121,0.569-11.7c0.587-3.452-3.617-5.977-5.72-7.513c-1.791-1.328-2.554-4.804-2.737-5.73
		c-1.022-10.226,0.977-19.573,5.538-29.565c4.64-10.164,11.785-18.388,20.404-24.347c-11.193,5.716-20.603,15.093-26.229,27.413
		c-13.255,29.033-0.475,63.294,28.557,76.548c6.02,2.747,12.281,4.362,18.525,4.949C183.982,202.28,180.569,201.082,177.224,199.554
		"/>
	<path clip-path="url(#SVGID_2_)" fill="#F7C601" d="M221.397,219.361c0,0,3.952-2.116,10.686,0.143
		C225.14,217.084,221.397,219.361,221.397,219.361"/>
	<path clip-path="url(#SVGID_2_)" fill="#F7C601" d="M232.431,219.623c-0.036-0.02-0.066-0.033-0.066-0.033
		S232.395,219.603,232.431,219.623"/>
	<path clip-path="url(#SVGID_2_)" fill="#F7C601" d="M232.342,219.598c-0.09-0.041-0.178-0.071-0.261-0.095
		C232.164,219.527,232.252,219.557,232.342,219.598"/>
	<path clip-path="url(#SVGID_2_)" fill="#F7C601" d="M149.281,216.927c0-0.042-0.004-0.075-0.004-0.075
		S149.281,216.885,149.281,216.927"/>
	<path clip-path="url(#SVGID_2_)" fill="#F7C601" d="M149.258,216.837c-0.011-0.098-0.026-0.189-0.048-0.272
		C149.232,216.648,149.247,216.739,149.258,216.837"/>
	<path clip-path="url(#SVGID_2_)" fill="#F7C601" d="M207.997,268.573c0,0-5.287-42.785,13.4-49.212c0,0,3.744-2.277,10.686,0.143
		c0.083,0.023,0.169,0.052,0.261,0.094c0,0,0.05,0.007,0.088,0.027c2.19,0.774,4.696,2.02,7.42,3.967c0,0-10.244-14.017-23.309-7.27
		c-14.595,7.535-13.227,36.351-8.259,55.761l-0.39-4.164L207.997,268.573z"/>
	<path clip-path="url(#SVGID_2_)" fill="#F7C601" d="M248.238,195.194c-8.889,13.836,6.826,37.857,20.821,52.18l-2.24-3.142
		l0.414,0.529c0,0-26.207-34.234-13.348-49.242c0,0,3.697-6.786,18.152-5.68C272.037,189.839,256.193,182.829,248.238,195.194"/>
	<path clip-path="url(#SVGID_2_)" fill="#F7C601" d="M265.824,160.866c-0.76,16.417,24.872,29.648,44.156,35.042l-10.143-4.483
		c-11.188-5.581-32.47-18.205-29.884-32.628c0,0-0.264-7.995,13.394-14.408C280.712,144.775,266.448,147.545,265.824,160.866"/>
	<path clip-path="url(#SVGID_2_)" fill="#F7C601" d="M94.957,219.446l-0.121,0.083c0.077-0.033,0.121-0.083,0.167-0.117l8.559-5.83
		c30.599-19.387,40.072-7.655,40.072-7.655c5.094,4.105,6.337,11.057,5.74,18.525l0.018-0.007c0,0,7.258-16.255-5.349-23.806
		c-14.474-8.634-38.274,7.214-52.596,21.206"/>
	<path clip-path="url(#SVGID_2_)" fill="#F7C601" d="M123.837,169.209c-8.198-14.706-36.199-13.045-55.602-8.08l8.984-1.041
		c11.819-0.677,38.654-0.599,43.63,13.89c0,0,4.001,6.624-4.288,18.535l0.007-0.003C116.568,192.51,130.992,182.043,123.837,169.209
		"/>
	<path clip-path="url(#SVGID_2_)" fill="#F7C601" d="M120.331,131.24c0.251-16.853-24.435-31.069-43.885-35.107l12.797,5.676
		c11.591,6.107,29.6,17.919,27.201,31.244c0,0,0.28,8.25-14.048,14.723l0.008,0.005C102.404,147.781,120.119,145.951,120.331,131.24
		"/>
	<path clip-path="url(#SVGID_2_)" fill="#F7C601" d="M137.68,96.712c8.638-14.463-5.857-39.12-20.69-52.333l2.372,3.314l-0.42-0.497
		c0,0,26.222,34.22,13.348,49.225c0,0-3.743,6.856-18.415,5.644l0.003,0.008C113.878,102.073,130.148,109.333,137.68,96.712"/>
	<path clip-path="url(#SVGID_2_)" fill="#F7C601" d="M169.486,74.418c13.095-7.604,14.396-27.54,8.453-55.285l0.254,2.861
		l0.074,0.84l-0.008-0.123c0.001,0.07,0.014,0.137,0.019,0.194l0.942,10.363c2.036,36.15-12.816,38.705-12.816,38.705
		c-6.457,2.604-13.621-0.153-20.196-4.811C146.208,67.162,156.785,81.793,169.486,74.418"/>
	<path clip-path="url(#SVGID_2_)" fill="#F7C601" d="M208.416,72.882c15.126-0.042,25.884-16.707,34.595-43.73l-7.214,15.341
		c-15.938,29.211-29.226,24.215-29.226,24.215c-6.693-0.995-11.401-6.692-14.705-13.755l0.002,0.002
		C191.868,54.955,193.71,72.918,208.416,72.882"/>
	<path clip-path="url(#SVGID_2_)" fill="#F7C601" d="M177.397,218.264c-16.428-0.778-30.009,23.914-34.527,45.545l8.663-18.411
		c15.43-26.904,28.072-22.164,28.072-22.164c6.525,0.973,11.157,6.402,14.432,13.214l0.014-0.006
		C194.051,236.442,192.082,218.953,177.397,218.264"/>
	<path clip-path="url(#SVGID_2_)" fill="#F7C601" d="M243.107,89.477c13.161,7.492,31.042-1.412,52.033-20.509l-2.346,1.66
		l-0.688,0.488l0.102-0.07c-0.06,0.037-0.111,0.082-0.159,0.115l-8.481,6.028c-30.219,19.945-39.897,8.395-39.897,8.395
		c-5.5-4.269-6.722-11.85-6.003-19.875C237.668,65.709,230.343,82.209,243.107,89.477"/>
	<path clip-path="url(#SVGID_2_)" fill="#F7C601" d="M264.02,122.349c7.645,13.05,27.459,13.965,55.197,7.897l-16.887,1.484
		c-33.265,0.923-35.63-13.076-35.63-13.076c-2.509-6.285,0.047-13.221,4.49-19.628l-0.004,0.002
		C271.186,99.028,256.591,109.657,264.02,122.349"/>
	<path clip-path="url(#SVGID_2_)" fill="#008D39" d="M331.333,82.566l3.935,0.392c0.648,0.064,1.172,0.206,1.571,0.445
		c0.762,0.459,1.097,1.177,0.998,2.17c-0.051,0.513-0.21,0.936-0.458,1.236c-0.241,0.305-0.577,0.543-0.989,0.704
		c0.33,0.168,0.57,0.382,0.728,0.626c0.141,0.24,0.205,0.612,0.176,1.12l-0.073,1.174c-0.018,0.327-0.021,0.581,0.013,0.745
		c0.044,0.289,0.141,0.48,0.316,0.569l-0.017,0.197l-1.452-0.145c-0.041-0.081-0.044-0.185-0.075-0.297
		c-0.001-0.135,0.003-0.35,0.034-0.695l0.059-1.46c0.029-0.571-0.129-0.978-0.493-1.208c-0.2-0.123-0.539-0.203-1.004-0.248
		l-2.588-0.258l-0.369,3.724l-1.175-0.117L331.333,82.566z M334.73,86.919c0.523,0.052,0.964-0.031,1.294-0.219
		c0.329-0.183,0.517-0.562,0.574-1.138c0.059-0.603-0.104-1.048-0.511-1.309c-0.224-0.144-0.528-0.229-0.916-0.269l-2.766-0.273
		l-0.292,2.947L334.73,86.919z"/>
	<path clip-path="url(#SVGID_2_)" fill="#008D39" d="M334.848,79.392c-4.325-0.43-8.188,2.718-8.619,7.047
		c-0.431,4.332,2.738,8.166,7.062,8.598c4.319,0.429,8.172-2.707,8.604-7.04C342.325,83.669,339.167,79.823,334.848,79.392
		 M333.481,93.945c-3.668-0.365-6.328-3.639-5.964-7.297c0.363-3.659,3.615-6.331,7.283-5.966c3.659,0.366,6.334,3.626,5.97,7.284
		C340.407,91.625,337.139,94.309,333.481,93.945"/>
	<path clip-path="url(#SVGID_2_)" fill="#008D39" d="M334.773,160.51c-0.386-0.823-0.926-1.509-1.574-2.068
		c1.091-1.101,1.876-2.34,2.442-3.78c1.632-4.118,0.691-8.773-2.456-12.148c-0.053-0.057-0.115-0.099-0.17-0.153
		c0.648-1.127,1.033-2.402,1.042-3.875c0.05-3.624-1.492-7.239-3.994-9.406c-1.705-1.501-3.736-2.237-5.876-2.116
		c-0.542,0.03-1.075,0.149-1.579,0.35l-1.115,0.449c-0.076-0.208-0.14-0.42-0.244-0.618c-1.497-2.821-1.859-6.776-2.206-10.592
		c-0.289-3.215-0.585-6.098-1.315-8.827c-1.543-5.732-6.443-8.742-10.146-9.572c-3.527-0.823-6.795,0.027-8.595,2.191
		c-1.437,1.663-2.71,4.773-0.609,10.134c1.2,3.086,1.055,6.451-0.391,9.437c-1.585,3.208-4.508,5.854-7.433,6.739
		c-10.758,3.216-17.136,12.82-19.211,21.683c-2.121-1.478-4.442-2.162-6.705-1.874c-2.567,0.386-4.633,2.04-5.505,4.373
		c-1.385,3.578-0.086,8.11,3.556,12.425c5.076,6.044,8.605,11.391,10.726,14.606c3.293,4.94,5.891,8.837,9.433,9.539
		c1.119,0.223,2.334,0.125,3.693-0.359c2.858-1.011,4.754-2.669,5.636-4.928c0.031-0.082,0.061-0.164,0.089-0.247
		c0.134-0.408,0.256-0.851,0.326-1.28c0.11-0.668,0.125-1.317,0.084-1.927c2.599,0.287,5.152,0.475,7.571,0.461
		c1.853-0.011,3.523-1.043,4.379-2.643c0.742,0.244,1.498,0.446,2.26,0.597c3.9,0.774,7.844,0.449,9.602,0.231
		c9.44-1.15,15.412-3.87,17.752-8.085C335.473,167.01,336.154,163.314,334.773,160.51"/>
	<path clip-path="url(#SVGID_2_)" fill="#FFFFFF" d="M329.523,145.927c1.461,1.567,2.545,4.161,1.463,6.891
		c-0.815,2.072-2.455,4.291-12.685,6.886c-3.991,1.021-12.225,1.095-14.473-2.379c-2.037-3.169-1.368-6.094,0.01-7.923
		c4.744,2.818,11.914,1.54,16.233,0.358C324.169,148.637,327.288,147.374,329.523,145.927"/>
	<path clip-path="url(#SVGID_2_)" fill="#FFFFFF" d="M322.465,132.77c0,0,1.479-0.599,2-0.808c0.777-0.043,1.547,0.222,2.289,0.875
		c1.41,1.222,2.326,3.482,2.296,5.579c-0.006,1.007-0.046,3.63-10.323,6.467c-5.113,1.402-11.307,1.955-13.366-0.761
		c-1.634-2.088-1.842-3.828-1.64-5.064c0.08-0.487,0.236-0.882,0.382-1.192c0.603-1.261,1.647-1.944,2.351-1.955
		C315.457,135.674,318.707,134.332,322.465,132.77"/>
	<path clip-path="url(#SVGID_2_)" fill="#FFFFFF" d="M271.079,155.099c0.075,0.1,7.018,8.946,16.07,21.946
		c0.252,0.497,0.678,1.673,0.503,2.74c-0.028,0.173-0.085,0.351-0.139,0.516c-0.335,0.858-1.23,1.528-2.641,2.027
		c-1.802,0.642-3.069-0.902-7.293-7.237c-2.511-3.806-5.987-9.012-11.057-15.049c-2.821-3.341-3.256-6.014-2.72-7.399
		c0.267-0.713,0.82-1.114,1.581-1.228c1.353-0.171,3.536,0.689,5.64,3.592C271.033,155.044,271.072,155.074,271.079,155.099"/>
	<path clip-path="url(#SVGID_2_)" fill="#FFFFFF" d="M290.779,173.422c-7.381-10.556-13.266-18.282-15.106-20.657
		c0.75-8.342,6.538-18.391,16.314-21.315c4.302-1.299,8.294-4.878,10.488-9.315c2.079-4.297,2.277-9.072,0.568-13.469
		c-0.917-2.344-1.017-4.181-0.269-5.046c0.612-0.737,2.072-0.958,3.686-0.588c2.54,0.571,5.527,2.63,6.433,5.995
		c0.642,2.402,0.907,5.106,1.163,7.973c0.398,4.361,0.831,8.839,2.769,12.491c-2.376,0.726-5.335,1.234-10.507,1.356
		c-2.74,0.064-5.401,1.977-6.771,4.827c-0.401,0.851-0.677,1.71-0.821,2.591c-0.397,2.426,0.169,5.006,1.622,7.445
		c-2.668,3.05-3.986,7.884-1.629,12.775c-2.374,3.194-3.36,8.035-0.68,12.991c0.574,1.05,1.327,1.926,2.178,2.645
		C297.552,174.137,294.366,173.949,290.779,173.422"/>
	<path clip-path="url(#SVGID_2_)" fill="#FFFFFF" d="M329.863,166.795c-0.687,1.24-3.418,4.26-13.981,5.547
		c-5.025,0.623-11.55,0.135-13.402-3.286c-1.363-2.508-1.209-4.76-0.413-6.446c5.303,3.807,14.256,2.811,17.47,2.008
		c3.823-0.969,6.702-1.954,8.916-2.98c0.242,0.143,0.503,0.249,0.801,0.297c0.587,0.096,0.82,0.345,0.984,0.697
		C330.777,163.728,330.468,165.712,329.863,166.795"/>
</g>
</svg>
